<?xml version="1.0" encoding="UTF-8" standalone="no"?>
<svg
   xmlns:dc="http://purl.org/dc/elements/1.1/"
   xmlns:cc="http://creativecommons.org/ns#"
   xmlns:rdf="http://www.w3.org/1999/02/22-rdf-syntax-ns#"
   xmlns:svg="http://www.w3.org/2000/svg"
   xmlns="http://www.w3.org/2000/svg"
   version="1.1"
   id="svg4273"
   viewBox="0 0 653.99995 604.00009"
   height="170.46225mm"
   width="184.57332mm">
  <defs
     id="defs4275" />
  <metadata
     id="metadata4278">
    <rdf:RDF>
      <cc:Work
         rdf:about="">
        <dc:format>image/svg+xml</dc:format>
        <dc:type
           rdf:resource="http://purl.org/dc/dcmitype/StillImage" />
        <dc:title></dc:title>
      </cc:Work>
    </rdf:RDF>
  </metadata>
  <g
     transform="translate(1067,-113.2193)"
     id="layer1">
    <path
       id="path4494-9-6-2-6-7-9-1-9"
       d="m -964.99995,115.2193 0,50 -50.00005,0 0,50 -50,0 0,50 0,150.0001 0,50 50,0 0,50 50.00005,0 0,50 50,0 0,50 50,0 0,50 50,0 0,50 149.9999,0 0,-50 50,0 0,-50 50,0 0,-50 50,0 0,-50 50,0 0,-50 50,0 0,-50 0,-150.0001 0,-50 -50,0 0,-50 -50,0 0,-50 -200,0 0,50 -50,0 0,-50 z"
       style="opacity:1;fill:#ffffff;fill-opacity:1;fill-rule:nonzero;stroke:#cccccc;stroke-width:4;stroke-linecap:round;stroke-linejoin:round;stroke-miterlimit:4;stroke-dasharray:none;stroke-opacity:1" />
    <path
       id="path4494-3-4-2-1-0-2"
       d="m -916.99995,167.2193 0,50 33.3339,0 33.332,0 33.3339,0 0,-50 -33.3339,0 -33.332,0 -33.3339,0 z m 100,50 0,50 49.9999,0 0,-50 -49.9999,0 z m 49.9999,50 0,50 50,0 0,-50 -50,0 z m 50,0 50,0 0,-50 -50,0 0,50 z m 50,-50 33.334,0 33.332,0 33.334,0 0,-50 -33.334,0 -33.332,0 -33.334,0 0,50 z m 100,0 0,50 50,0 0,-50 -50,0 z m 50,50 0,50 50,0 0,-50 -50,0 z m -399.9999,-50 -50,0 0,50 50,0 0,-50 z m -50,50 -50.00005,0 0,50 50.00005,0 0,-50 z M -1017,317.2212 l 0,50 0,49.9981 50.00005,0 0,-50 0,-49.9981 -50.00005,0 z m 50.00005,99.9981 0,50 50,0 0,-50 -50,0 z m 50,50 0,50 50,0 0,-50 -50,0 z m 50,50 0,50 50,0 0,-50 -50,0 z m 50,50 0,50 49.9999,0 0,-50 -49.9999,0 z m 49.9999,50 0,50.0001 50,0 0,-50.0001 -50,0 z m 50,0 50,0 0,-50 -50,0 0,50 z m 50,-50 50,0 0,-50 -50,0 0,50 z m 50,-50 50,0 0,-50 -50,0 0,50 z m 50,-50 50,0 0,-50 -50,0 0,50 z m 50,-50 50,0 0,-50 0,-49.9981 -50,0 0,50 0,49.9981 z"
       style="opacity:1;fill:#1a1a1a;fill-opacity:1;fill-rule:nonzero;stroke:none;stroke-width:4;stroke-linecap:round;stroke-linejoin:round;stroke-miterlimit:4;stroke-dasharray:none;stroke-opacity:1" />
    <path
       id="rect5355-9-7-7-3-0"
       d="m -916.99995,217.2175 0,50 -50,0 0,50 0,50 0,50 50,0 0,50 50,0 0,50 50,0 0,50 49.9999,0 0,50 50,0 0,-50 50,0 0,-50 50,0 0,-50 50,0 0,-50 50,0 0,-50 0,-50 0,-50 -50,0 0,-50 -100,0 0,50 -50,0 0,50 -50,0 0,-50 -49.9999,0 0,-50 -100,0 z"
       style="opacity:1;fill:#ffffff;fill-opacity:1;fill-rule:nonzero;stroke:none;stroke-width:3;stroke-linecap:round;stroke-linejoin:round;stroke-miterlimit:4;stroke-dasharray:none;stroke-opacity:1" />
    <path
       id="rect4291-97-5"
       transform="translate(-1067,113.21927)"
       d="M 400 154 L 400 204 L 450 204 L 450 254 L 500 254 L 500 204 L 500 154 L 450 154 L 400 154 z "
       style="opacity:1;fill:#4d4d4d;fill-opacity:1;fill-rule:nonzero;stroke:none;stroke-width:3;stroke-linecap:round;stroke-linejoin:round;stroke-miterlimit:4;stroke-dasharray:none;stroke-opacity:1" />
  </g>
</svg>
