<?xml version="1.0" encoding="UTF-8" standalone="no"?>
<!-- Created with Inkscape (http://www.inkscape.org/) -->

<svg
   xmlns:dc="http://purl.org/dc/elements/1.1/"
   xmlns:cc="http://creativecommons.org/ns#"
   xmlns:rdf="http://www.w3.org/1999/02/22-rdf-syntax-ns#"
   xmlns:svg="http://www.w3.org/2000/svg"
   xmlns="http://www.w3.org/2000/svg"
   xmlns:sodipodi="http://sodipodi.sourceforge.net/DTD/sodipodi-0.dtd"
   xmlns:inkscape="http://www.inkscape.org/namespaces/inkscape"
   width="210mm"
   height="297mm"
   viewBox="0 0 744.09448819 1052.3622047"
   id="svg2"
   version="1.1"
   inkscape:version="0.91 r13725"
   sodipodi:docname="love.svg">
  <defs
     id="defs4" />
  <sodipodi:namedview
     id="base"
     pagecolor="#ffffff"
     bordercolor="#666666"
     borderopacity="1.0"
     inkscape:pageopacity="0.0"
     inkscape:pageshadow="2"
     inkscape:zoom="0.24748737"
     inkscape:cx="256.0477"
     inkscape:cy="504.30484"
     inkscape:document-units="px"
     inkscape:current-layer="layer1"
     showgrid="false"
     inkscape:window-width="1855"
     inkscape:window-height="1056"
     inkscape:window-x="65"
     inkscape:window-y="24"
     inkscape:window-maximized="1" />
  <metadata
     id="metadata7">
    <rdf:RDF>
      <cc:Work
         rdf:about="">
        <dc:format>image/svg+xml</dc:format>
        <dc:type
           rdf:resource="http://purl.org/dc/dcmitype/StillImage" />
        <dc:title />
      </cc:Work>
    </rdf:RDF>
  </metadata>
  <g
     inkscape:label="Layer 1"
     inkscape:groupmode="layer"
     id="layer1">
    <path
       style="opacity:1;fill:#000000;fill-opacity:1;fill-rule:nonzero;stroke:none;stroke-width:4;stroke-linecap:round;stroke-linejoin:round;stroke-miterlimit:4;stroke-dasharray:none;stroke-opacity:1"
       d="m 1994.2857,545.21844 0,50 -50,0 0,50 -50,0 0,50 0,0.002 0,50 0,49.998 50,0 0,50 50,0 0,50 50,0 0,50 50,0 0,50 50,0 0,49.99996 50,0 0,-49.99996 50,0 0,-50 50,0 0,-50 50,0 0,-50 50,0 0,-50 50,0 0,-50 0,-49.998 0,-0.002 0,-50 -50,0 0,-50 -50,0 0,-50 -50,0 -50,0 -50,0 0,50 -50,0 0,-50 -50,0 -50,0 -50,0 z"
       id="rect4136" />
    <path
       style="opacity:1;fill:#000000;fill-opacity:1;fill-rule:nonzero;stroke:none;stroke-width:4;stroke-linecap:round;stroke-linejoin:round;stroke-miterlimit:4;stroke-dasharray:none;stroke-opacity:1"
       d="m 1350.7143,545.21935 0,50 50,0 50,0 50,0 0,-50 -50,0 -50,0 -50,0 z"
       id="path4494"
       inkscape:connector-curvature="0" />
    <path
       style="opacity:1;fill:#000000;fill-opacity:1;fill-rule:nonzero;stroke:none;stroke-width:4;stroke-linecap:round;stroke-linejoin:round;stroke-miterlimit:4;stroke-dasharray:none;stroke-opacity:1"
       d="m 1500.7143,595.21935 0,50 50,0 0,-50 -50,0 z"
       id="path4492"
       inkscape:connector-curvature="0" />
    <path
       style="opacity:1;fill:#000000;fill-opacity:1;fill-rule:nonzero;stroke:none;stroke-width:4;stroke-linecap:round;stroke-linejoin:round;stroke-miterlimit:4;stroke-dasharray:none;stroke-opacity:1"
       d="m 1550.7143,595.21935 50,0 50,0 50,0 0,-50 -50,0 -50,0 -50,0 0,50 z"
       id="path4490"
       inkscape:connector-curvature="0" />
    <path
       style="opacity:1;fill:#000000;fill-opacity:1;fill-rule:nonzero;stroke:none;stroke-width:4;stroke-linecap:round;stroke-linejoin:round;stroke-miterlimit:4;stroke-dasharray:none;stroke-opacity:1"
       d="m 1700.7143,595.21935 0,50 50,0 0,-50 -50,0 z"
       id="path4488"
       inkscape:connector-curvature="0" />
    <path
       style="opacity:1;fill:#000000;fill-opacity:1;fill-rule:nonzero;stroke:none;stroke-width:4;stroke-linecap:round;stroke-linejoin:round;stroke-miterlimit:4;stroke-dasharray:none;stroke-opacity:1"
       d="m 1750.7143,645.21935 0,50 50,0 0,-50 -50,0 z"
       id="path4486"
       inkscape:connector-curvature="0" />
    <path
       style="opacity:1;fill:#000000;fill-opacity:1;fill-rule:nonzero;stroke:none;stroke-width:4;stroke-linecap:round;stroke-linejoin:round;stroke-miterlimit:4;stroke-dasharray:none;stroke-opacity:1"
       d="m 1350.7143,595.21935 -50,0 0,50 50,0 0,-50 z"
       id="path4484"
       inkscape:connector-curvature="0" />
    <path
       style="opacity:1;fill:#000000;fill-opacity:1;fill-rule:nonzero;stroke:none;stroke-width:4;stroke-linecap:round;stroke-linejoin:round;stroke-miterlimit:4;stroke-dasharray:none;stroke-opacity:1"
       d="m 1300.7143,645.21935 -50,0 0,50 50,0 0,-50 z"
       id="path4482"
       inkscape:connector-curvature="0" />
    <path
       style="opacity:1;fill:#000000;fill-opacity:1;fill-rule:nonzero;stroke:none;stroke-width:4;stroke-linecap:round;stroke-linejoin:round;stroke-miterlimit:4;stroke-dasharray:none;stroke-opacity:1"
       d="m 1250.7143,695.22135 0,50 0,49.998 50,0 0,-50 0,-49.998 -50,0 z"
       id="path4480"
       inkscape:connector-curvature="0" />
    <path
       style="opacity:1;fill:#000000;fill-opacity:1;fill-rule:nonzero;stroke:none;stroke-width:4;stroke-linecap:round;stroke-linejoin:round;stroke-miterlimit:4;stroke-dasharray:none;stroke-opacity:1"
       d="m 1300.7143,795.21935 0,50 50,0 0,-50 -50,0 z"
       id="path4478"
       inkscape:connector-curvature="0" />
    <path
       style="opacity:1;fill:#000000;fill-opacity:1;fill-rule:nonzero;stroke:none;stroke-width:4;stroke-linecap:round;stroke-linejoin:round;stroke-miterlimit:4;stroke-dasharray:none;stroke-opacity:1"
       d="m 1350.7143,845.21935 0,50 50,0 0,-50 -50,0 z"
       id="path4476"
       inkscape:connector-curvature="0" />
    <path
       style="opacity:1;fill:#000000;fill-opacity:1;fill-rule:nonzero;stroke:none;stroke-width:4;stroke-linecap:round;stroke-linejoin:round;stroke-miterlimit:4;stroke-dasharray:none;stroke-opacity:1"
       d="m 1400.7143,895.21935 0,50 50,0 0,-50 -50,0 z"
       id="path4474"
       inkscape:connector-curvature="0" />
    <path
       style="opacity:1;fill:#000000;fill-opacity:1;fill-rule:nonzero;stroke:none;stroke-width:4;stroke-linecap:round;stroke-linejoin:round;stroke-miterlimit:4;stroke-dasharray:none;stroke-opacity:1"
       d="m 1450.7143,945.21935 0,50 50,0 0,-50 -50,0 z"
       id="path4472"
       inkscape:connector-curvature="0" />
    <path
       style="opacity:1;fill:#000000;fill-opacity:1;fill-rule:nonzero;stroke:none;stroke-width:4;stroke-linecap:round;stroke-linejoin:round;stroke-miterlimit:4;stroke-dasharray:none;stroke-opacity:1"
       d="m 1500.7143,995.21935 0,50.00005 50,0 0,-50.00005 -50,0 z"
       id="path4470"
       inkscape:connector-curvature="0" />
    <path
       style="opacity:1;fill:#000000;fill-opacity:1;fill-rule:nonzero;stroke:none;stroke-width:4;stroke-linecap:round;stroke-linejoin:round;stroke-miterlimit:4;stroke-dasharray:none;stroke-opacity:1"
       d="m 1550.7143,995.21935 50,0 0,-50 -50,0 0,50 z"
       id="path4468"
       inkscape:connector-curvature="0" />
    <path
       style="opacity:1;fill:#000000;fill-opacity:1;fill-rule:nonzero;stroke:none;stroke-width:4;stroke-linecap:round;stroke-linejoin:round;stroke-miterlimit:4;stroke-dasharray:none;stroke-opacity:1"
       d="m 1600.7143,945.21935 50,0 0,-50 -50,0 0,50 z"
       id="path4466"
       inkscape:connector-curvature="0" />
    <path
       style="opacity:1;fill:#000000;fill-opacity:1;fill-rule:nonzero;stroke:none;stroke-width:4;stroke-linecap:round;stroke-linejoin:round;stroke-miterlimit:4;stroke-dasharray:none;stroke-opacity:1"
       d="m 1650.7143,895.21935 50,0 0,-50 -50,0 0,50 z"
       id="path4464"
       inkscape:connector-curvature="0" />
    <path
       style="opacity:1;fill:#000000;fill-opacity:1;fill-rule:nonzero;stroke:none;stroke-width:4;stroke-linecap:round;stroke-linejoin:round;stroke-miterlimit:4;stroke-dasharray:none;stroke-opacity:1"
       d="m 1700.7143,845.21935 50,0 0,-50 -50,0 0,50 z"
       id="path4462"
       inkscape:connector-curvature="0" />
    <path
       style="opacity:1;fill:#000000;fill-opacity:1;fill-rule:nonzero;stroke:none;stroke-width:4;stroke-linecap:round;stroke-linejoin:round;stroke-miterlimit:4;stroke-dasharray:none;stroke-opacity:1"
       d="m 1750.7143,795.21935 50,0 0,-50 0,-49.998 -50,0 0,50 0,49.998 z"
       id="rect4136-3"
       inkscape:connector-curvature="0" />
    <path
       style="opacity:1;fill:#000000;fill-opacity:1;fill-rule:nonzero;stroke:none;stroke-width:4;stroke-linecap:round;stroke-linejoin:round;stroke-miterlimit:4;stroke-dasharray:none;stroke-opacity:1"
       d="m 1347.4601,-125.63619 0,50.000004 33.3334,0 33.3333,0 33.3333,0 0,-50.000004 -33.3333,0 -33.3333,0 -33.3334,0 z"
       id="path4494-9"
       inkscape:connector-curvature="0" />
    <path
       inkscape:connector-curvature="0"
       style="opacity:1;fill:#000000;fill-opacity:1;fill-rule:nonzero;stroke:none;stroke-width:4;stroke-linecap:round;stroke-linejoin:round;stroke-miterlimit:4;stroke-dasharray:none;stroke-opacity:1"
       d="m 1497.4602,-25.636186 0,50 50,0 0,-50 -50,0 z"
       id="path4492-7" />
    <path
       inkscape:connector-curvature="0"
       style="opacity:1;fill:#000000;fill-opacity:1;fill-rule:nonzero;stroke:none;stroke-width:4;stroke-linecap:round;stroke-linejoin:round;stroke-miterlimit:4;stroke-dasharray:none;stroke-opacity:1"
       d="m 1597.4601,-75.636186 33.3334,0 33.3333,0 33.3333,0 0,-50.000004 -33.3333,0 -33.3333,0 -33.3334,0 0,50.000004 z"
       id="path4490-3" />
    <path
       inkscape:connector-curvature="0"
       style="opacity:1;fill:#000000;fill-opacity:1;fill-rule:nonzero;stroke:none;stroke-width:4;stroke-linecap:round;stroke-linejoin:round;stroke-miterlimit:4;stroke-dasharray:none;stroke-opacity:1"
       d="m 1697.4601,-75.636186 0,50 50,0 0,-50 -50,0 z"
       id="path4488-6" />
    <path
       inkscape:connector-curvature="0"
       style="opacity:1;fill:#000000;fill-opacity:1;fill-rule:nonzero;stroke:none;stroke-width:4;stroke-linecap:round;stroke-linejoin:round;stroke-miterlimit:4;stroke-dasharray:none;stroke-opacity:1"
       d="m 1747.4601,-25.636186 0,50 50,0 0,-50 -50,0 z"
       id="path4486-1" />
    <path
       inkscape:connector-curvature="0"
       style="opacity:1;fill:#000000;fill-opacity:1;fill-rule:nonzero;stroke:none;stroke-width:4;stroke-linecap:round;stroke-linejoin:round;stroke-miterlimit:4;stroke-dasharray:none;stroke-opacity:1"
       d="m 1347.4601,-75.636186 -50,0 0,50 50,0 0,-50 z"
       id="path4484-2" />
    <path
       inkscape:connector-curvature="0"
       style="opacity:1;fill:#000000;fill-opacity:1;fill-rule:nonzero;stroke:none;stroke-width:4;stroke-linecap:round;stroke-linejoin:round;stroke-miterlimit:4;stroke-dasharray:none;stroke-opacity:1"
       d="m 1297.4601,-25.636186 -50,0 0,50 50,0 0,-50 z"
       id="path4482-9" />
    <path
       inkscape:connector-curvature="0"
       style="opacity:1;fill:#000000;fill-opacity:1;fill-rule:nonzero;stroke:none;stroke-width:4;stroke-linecap:round;stroke-linejoin:round;stroke-miterlimit:4;stroke-dasharray:none;stroke-opacity:1"
       d="m 1247.4601,24.365814 0,50 0,49.997996 50,0 0,-49.999996 0,-49.998 -50,0 z"
       id="path4480-3" />
    <path
       inkscape:connector-curvature="0"
       style="opacity:1;fill:#000000;fill-opacity:1;fill-rule:nonzero;stroke:none;stroke-width:4;stroke-linecap:round;stroke-linejoin:round;stroke-miterlimit:4;stroke-dasharray:none;stroke-opacity:1"
       d="m 1297.4601,124.36381 0,50 50,0 0,-50 -50,0 z"
       id="path4478-1" />
    <path
       inkscape:connector-curvature="0"
       style="opacity:1;fill:#000000;fill-opacity:1;fill-rule:nonzero;stroke:none;stroke-width:4;stroke-linecap:round;stroke-linejoin:round;stroke-miterlimit:4;stroke-dasharray:none;stroke-opacity:1"
       d="m 1347.4601,174.36381 0,50 50,0 0,-50 -50,0 z"
       id="path4476-9" />
    <path
       inkscape:connector-curvature="0"
       style="opacity:1;fill:#000000;fill-opacity:1;fill-rule:nonzero;stroke:none;stroke-width:4;stroke-linecap:round;stroke-linejoin:round;stroke-miterlimit:4;stroke-dasharray:none;stroke-opacity:1"
       d="m 1397.4601,224.36381 0,50 50,0 0,-50 -50,0 z"
       id="path4474-4" />
    <path
       inkscape:connector-curvature="0"
       style="opacity:1;fill:#000000;fill-opacity:1;fill-rule:nonzero;stroke:none;stroke-width:4;stroke-linecap:round;stroke-linejoin:round;stroke-miterlimit:4;stroke-dasharray:none;stroke-opacity:1"
       d="m 1447.4601,274.36381 0,50 50.0001,0 0,-50 -50.0001,0 z"
       id="path4472-7" />
    <path
       inkscape:connector-curvature="0"
       style="opacity:1;fill:#000000;fill-opacity:1;fill-rule:nonzero;stroke:none;stroke-width:4;stroke-linecap:round;stroke-linejoin:round;stroke-miterlimit:4;stroke-dasharray:none;stroke-opacity:1"
       d="m 1497.4602,324.36381 0,50 50,0 0,-50 -50,0 z"
       id="path4470-8" />
    <path
       inkscape:connector-curvature="0"
       style="opacity:1;fill:#000000;fill-opacity:1;fill-rule:nonzero;stroke:none;stroke-width:4;stroke-linecap:round;stroke-linejoin:round;stroke-miterlimit:4;stroke-dasharray:none;stroke-opacity:1"
       d="m 1547.4602,324.36381 50,0 0,-50 -50,0 0,50 z"
       id="path4468-4" />
    <path
       inkscape:connector-curvature="0"
       style="opacity:1;fill:#000000;fill-opacity:1;fill-rule:nonzero;stroke:none;stroke-width:4;stroke-linecap:round;stroke-linejoin:round;stroke-miterlimit:4;stroke-dasharray:none;stroke-opacity:1"
       d="m 1597.4602,274.36381 50,0 0,-50 -50,0 0,50 z"
       id="path4466-5" />
    <path
       inkscape:connector-curvature="0"
       style="opacity:1;fill:#000000;fill-opacity:1;fill-rule:nonzero;stroke:none;stroke-width:4;stroke-linecap:round;stroke-linejoin:round;stroke-miterlimit:4;stroke-dasharray:none;stroke-opacity:1"
       d="m 1647.4602,224.36381 49.9999,0 0,-50 -49.9999,0 0,50 z"
       id="path4464-0" />
    <path
       inkscape:connector-curvature="0"
       style="opacity:1;fill:#000000;fill-opacity:1;fill-rule:nonzero;stroke:none;stroke-width:4;stroke-linecap:round;stroke-linejoin:round;stroke-miterlimit:4;stroke-dasharray:none;stroke-opacity:1"
       d="m 1697.4601,174.36381 50,0 0,-50 -50,0 0,50 z"
       id="path4462-3" />
    <path
       inkscape:connector-curvature="0"
       style="opacity:1;fill:#000000;fill-opacity:1;fill-rule:nonzero;stroke:none;stroke-width:4;stroke-linecap:round;stroke-linejoin:round;stroke-miterlimit:4;stroke-dasharray:none;stroke-opacity:1"
       d="m 1747.4601,124.36381 50,0 0,-49.999996 0,-49.998 -50,0 0,50 0,49.997996 z"
       id="rect4136-3-6" />
    <path
       inkscape:connector-curvature="0"
       style="opacity:1;fill:#000000;fill-opacity:1;fill-rule:nonzero;stroke:none;stroke-width:4;stroke-linecap:round;stroke-linejoin:round;stroke-miterlimit:4;stroke-dasharray:none;stroke-opacity:1"
       d="m 1497.4601,-75.636186 -50,0 0,50 50,0 0,-50 z"
       id="path4484-2-1" />
    <path
       inkscape:connector-curvature="0"
       style="opacity:1;fill:#000000;fill-opacity:1;fill-rule:nonzero;stroke:none;stroke-width:4;stroke-linecap:round;stroke-linejoin:round;stroke-miterlimit:4;stroke-dasharray:none;stroke-opacity:1"
       d="m 1597.4601,-75.636186 -50,0 0,50 50,0 0,-50 z"
       id="path4484-2-1-0" />
    <path
       style="opacity:1;fill:#000000;fill-opacity:1;fill-rule:nonzero;stroke:none;stroke-width:4;stroke-linecap:round;stroke-linejoin:round;stroke-miterlimit:4;stroke-dasharray:none;stroke-opacity:1"
       d="m 1344.2694,1149.8547 0,50 -50,0 0,50 -50,0 0,50 0,0 0,50 0,49.998 50,0 0,50 50,0 0,50 50,0 0,50 50,0 0,50 50,0 0,50 50,0 0,-50 50,0 0,-50 50,0 0,-50 50,0 0,-50 50,0 0,-50 50,0 0,-50 0,-49.998 0,0 0,-50 -50,0 0,-50 -50,0 0,-50 -50,0 -50,0 -50,0 0,50 -50,0 0,-50 -50,0 -50,0 -50,0 z"
       id="rect4136-6" />
    <rect
       style="opacity:1;fill:#000000;fill-opacity:1;fill-rule:nonzero;stroke:none;stroke-width:4;stroke-linecap:round;stroke-linejoin:round;stroke-miterlimit:4;stroke-dasharray:none;stroke-opacity:1"
       id="rect4634"
       width="200"
       height="50"
       x="1297.4601"
       y="-75.636162" />
    <rect
       style="opacity:1;fill:#000000;fill-opacity:1;fill-rule:nonzero;stroke:none;stroke-width:4;stroke-linecap:round;stroke-linejoin:round;stroke-miterlimit:4;stroke-dasharray:none;stroke-opacity:1"
       id="rect4634-3"
       width="200"
       height="50"
       x="1547.4601"
       y="-75.636162" />
    <rect
       style="opacity:1;fill:#000000;fill-opacity:1;fill-rule:nonzero;stroke:none;stroke-width:4;stroke-linecap:round;stroke-linejoin:round;stroke-miterlimit:4;stroke-dasharray:none;stroke-opacity:1"
       id="rect4634-2"
       width="550"
       height="50"
       x="1247.4601"
       y="-25.63616" />
    <rect
       style="opacity:1;fill:#000000;fill-opacity:1;fill-rule:nonzero;stroke:none;stroke-width:4;stroke-linecap:round;stroke-linejoin:round;stroke-miterlimit:4;stroke-dasharray:none;stroke-opacity:1"
       id="rect4634-2-0"
       width="550"
       height="50"
       x="1247.4601"
       y="24.36384" />
    <rect
       style="opacity:1;fill:#000000;fill-opacity:1;fill-rule:nonzero;stroke:none;stroke-width:4;stroke-linecap:round;stroke-linejoin:round;stroke-miterlimit:4;stroke-dasharray:none;stroke-opacity:1"
       id="rect4634-2-6"
       width="550"
       height="50"
       x="1247.4601"
       y="74.363838" />
    <rect
       style="opacity:1;fill:#000000;fill-opacity:1;fill-rule:nonzero;stroke:none;stroke-width:4;stroke-linecap:round;stroke-linejoin:round;stroke-miterlimit:4;stroke-dasharray:none;stroke-opacity:1"
       id="rect4634-2-1"
       width="450"
       height="50"
       x="1297.4601"
       y="124.36384" />
    <rect
       style="opacity:1;fill:#000000;fill-opacity:1;fill-rule:nonzero;stroke:none;stroke-width:4;stroke-linecap:round;stroke-linejoin:round;stroke-miterlimit:4;stroke-dasharray:none;stroke-opacity:1"
       id="rect4634-2-1-5"
       width="350"
       height="50"
       x="1347.4601"
       y="174.36385" />
    <rect
       style="opacity:1;fill:#000000;fill-opacity:1;fill-rule:nonzero;stroke:none;stroke-width:4;stroke-linecap:round;stroke-linejoin:round;stroke-miterlimit:4;stroke-dasharray:none;stroke-opacity:1"
       id="rect4634-2-1-54"
       width="250"
       height="50"
       x="1397.4601"
       y="224.36385" />
    <rect
       style="opacity:1;fill:#000000;fill-opacity:1;fill-rule:nonzero;stroke:none;stroke-width:4;stroke-linecap:round;stroke-linejoin:round;stroke-miterlimit:4;stroke-dasharray:none;stroke-opacity:1"
       id="rect4634-2-1-7"
       width="150"
       height="50"
       x="1447.4601"
       y="274.36383" />
    <path
       style="opacity:1;fill:#37c837;fill-opacity:1;fill-rule:nonzero;stroke:none;stroke-width:4;stroke-linecap:round;stroke-linejoin:round;stroke-miterlimit:4;stroke-dasharray:none;stroke-opacity:1"
       d="M 128.04492 1311.4785 L 128.04492 1361.4785 L 78.044922 1361.4785 L 78.044922 1411.4785 L 28.044922 1411.4785 L 28.044922 1461.4785 L 28.044922 1511.4785 L 28.044922 1511.4805 L 28.044922 1561.4785 L 78.044922 1561.4785 L 78.044922 1611.4785 L 128.04492 1611.4785 L 128.04492 1661.4785 L 178.04492 1661.4785 L 178.04492 1711.4785 L 228.04492 1711.4785 L 228.04492 1761.4785 L 278.04492 1761.4785 L 278.04492 1811.4785 L 328.04492 1811.4785 L 328.04492 1761.4785 L 378.04492 1761.4785 L 378.04492 1711.4785 L 428.04492 1711.4785 L 428.04492 1661.4785 L 478.04492 1661.4785 L 478.04492 1611.4785 L 528.04492 1611.4785 L 528.04492 1561.4785 L 578.04492 1561.4785 L 578.04492 1511.4785 L 578.04492 1461.4785 L 578.04492 1411.4785 L 528.04492 1411.4785 L 528.04492 1361.4785 L 478.04492 1361.4785 L 478.04492 1311.4785 L 444.71289 1311.4785 L 411.37891 1311.4785 L 378.04492 1311.4785 L 378.04492 1361.4785 L 328.04492 1361.4785 L 328.04492 1411.4785 L 278.04492 1411.4785 L 278.04492 1361.4785 L 228.04492 1361.4785 L 228.04492 1311.4785 L 194.71289 1311.4785 L 161.37891 1311.4785 L 128.04492 1311.4785 z "
       id="path4494-9-6" />
    <path
       style="opacity:1;fill:#2aff2a;fill-opacity:1;fill-rule:nonzero;stroke:none;stroke-width:4;stroke-linecap:round;stroke-linejoin:round;stroke-miterlimit:4;stroke-dasharray:none;stroke-opacity:1"
       d="m 100,552.36218 0,50 33.33399,0 33.33203,0 33.33398,0 0,-50 -33.33398,0 -33.33203,0 -33.33399,0 z m 100,50 0,50 50,0 0,-50 -50,0 z m 50,50 0,50 50,0 0,-50 -50,0 z m 50,0 50,0 0,-50 -50,0 0,50 z m 50,-50 33.33399,0 33.33203,0 33.33398,0 0,-50 -33.33398,0 -33.33203,0 -33.33399,0 0,50 z m 100,0 0,50 50,0 0,-50 -50,0 z m 50,50 0,50 50,0 0,-50 -50,0 z m -400,-50 -50,0 0,50 50,0 0,-50 z m -50,50 -50,0 0,50 50,0 0,-50 z m -50,50.00195 0,50 0,49.99805 50,0 0,-50 0,-49.99805 -50,0 z m 50,99.99805 0,50 50,0 0,-50 -50,0 z m 50,50 0,50 50,0 0,-50 -50,0 z m 50,50 0,50 50,0 0,-50 -50,0 z m 50,50 0,50.00002 50,0 0,-50.00002 -50,0 z m 50,50.00002 0,50 50,0 0,-50 -50,0 z m 50,0 50,0 0,-50.00002 -50,0 0,50.00002 z m 50,-50.00002 50,0 0,-50 -50,0 0,50 z m 50,-50 50,0 0,-50 -50,0 0,50 z m 50,-50 50,0 0,-50 -50,0 0,50 z m 50,-50 50,0 0,-50 0,-49.99805 -50,0 0,50 0,49.99805 z"
       id="path4494-3"
       inkscape:connector-curvature="0" />
    <path
       style="opacity:1;fill:#000000;fill-opacity:1;fill-rule:nonzero;stroke:none;stroke-width:4;stroke-linecap:round;stroke-linejoin:round;stroke-miterlimit:4;stroke-dasharray:none;stroke-opacity:1"
       d="m 1310.7143,-834.78066 0,50 33.3333,0 33.3333,0 33.3334,0 0,-50 -33.3334,0 -33.3333,0 -33.3333,0 z"
       id="path4494-3-2"
       inkscape:connector-curvature="0" />
    <path
       style="opacity:1;fill:#000000;fill-opacity:1;fill-rule:nonzero;stroke:none;stroke-width:4;stroke-linecap:round;stroke-linejoin:round;stroke-miterlimit:4;stroke-dasharray:none;stroke-opacity:1"
       d="m 1460.7143,-734.78066 0,50 50,0 0,-50 -50,0 z"
       id="path4492-6-0"
       inkscape:connector-curvature="0" />
    <path
       style="opacity:1;fill:#000000;fill-opacity:1;fill-rule:nonzero;stroke:none;stroke-width:4;stroke-linecap:round;stroke-linejoin:round;stroke-miterlimit:4;stroke-dasharray:none;stroke-opacity:1"
       d="m 1560.7143,-784.78066 33.3333,0 33.3333,0 33.3334,0 0,-50 -33.3334,0 -33.3333,0 -33.3333,0 0,50 z"
       id="path4490-7-2"
       inkscape:connector-curvature="0" />
    <path
       style="opacity:1;fill:#000000;fill-opacity:1;fill-rule:nonzero;stroke:none;stroke-width:4;stroke-linecap:round;stroke-linejoin:round;stroke-miterlimit:4;stroke-dasharray:none;stroke-opacity:1"
       d="m 1660.7143,-784.78066 0,50 50,0 0,-50 -50,0 z"
       id="path4488-5-3"
       inkscape:connector-curvature="0" />
    <path
       style="opacity:1;fill:#000000;fill-opacity:1;fill-rule:nonzero;stroke:none;stroke-width:4;stroke-linecap:round;stroke-linejoin:round;stroke-miterlimit:4;stroke-dasharray:none;stroke-opacity:1"
       d="m 1710.7143,-734.78066 0,50 50,0 0,-50 -50,0 z"
       id="path4486-3-7"
       inkscape:connector-curvature="0" />
    <path
       style="opacity:1;fill:#000000;fill-opacity:1;fill-rule:nonzero;stroke:none;stroke-width:4;stroke-linecap:round;stroke-linejoin:round;stroke-miterlimit:4;stroke-dasharray:none;stroke-opacity:1"
       d="m 1310.7143,-784.78066 -50,0 0,50 50,0 0,-50 z"
       id="path4484-5-5"
       inkscape:connector-curvature="0" />
    <path
       style="opacity:1;fill:#000000;fill-opacity:1;fill-rule:nonzero;stroke:none;stroke-width:4;stroke-linecap:round;stroke-linejoin:round;stroke-miterlimit:4;stroke-dasharray:none;stroke-opacity:1"
       d="m 1260.7143,-734.78066 -50,0 0,50 50,0 0,-50 z"
       id="path4482-6-9"
       inkscape:connector-curvature="0" />
    <path
       style="opacity:1;fill:#000000;fill-opacity:1;fill-rule:nonzero;stroke:none;stroke-width:4;stroke-linecap:round;stroke-linejoin:round;stroke-miterlimit:4;stroke-dasharray:none;stroke-opacity:1"
       d="m 1210.7143,-684.77866 0,50 0,49.998 50,0 0,-50 0,-49.998 -50,0 z"
       id="path4480-2-2"
       inkscape:connector-curvature="0" />
    <path
       style="opacity:1;fill:#000000;fill-opacity:1;fill-rule:nonzero;stroke:none;stroke-width:4;stroke-linecap:round;stroke-linejoin:round;stroke-miterlimit:4;stroke-dasharray:none;stroke-opacity:1"
       d="m 1260.7143,-584.78066 0,50 50,0 0,-50 -50,0 z"
       id="path4478-9-2"
       inkscape:connector-curvature="0" />
    <path
       style="opacity:1;fill:#000000;fill-opacity:1;fill-rule:nonzero;stroke:none;stroke-width:4;stroke-linecap:round;stroke-linejoin:round;stroke-miterlimit:4;stroke-dasharray:none;stroke-opacity:1"
       d="m 1310.7143,-534.78066 0,50 50,0 0,-50 -50,0 z"
       id="path4476-1-8"
       inkscape:connector-curvature="0" />
    <path
       style="opacity:1;fill:#000000;fill-opacity:1;fill-rule:nonzero;stroke:none;stroke-width:4;stroke-linecap:round;stroke-linejoin:round;stroke-miterlimit:4;stroke-dasharray:none;stroke-opacity:1"
       d="m 1360.7143,-484.78066 0,49.99997 50,0 0,-49.99997 -50,0 z"
       id="path4474-2-9"
       inkscape:connector-curvature="0" />
    <path
       style="opacity:1;fill:#000000;fill-opacity:1;fill-rule:nonzero;stroke:none;stroke-width:4;stroke-linecap:round;stroke-linejoin:round;stroke-miterlimit:4;stroke-dasharray:none;stroke-opacity:1"
       d="m 1410.7143,-434.78069 0,50 50,0 0,-50 -50,0 z"
       id="path4472-70-7"
       inkscape:connector-curvature="0" />
    <path
       style="opacity:1;fill:#000000;fill-opacity:1;fill-rule:nonzero;stroke:none;stroke-width:4;stroke-linecap:round;stroke-linejoin:round;stroke-miterlimit:4;stroke-dasharray:none;stroke-opacity:1"
       d="m 1460.7143,-384.78069 0,50 50,0 0,-50 -50,0 z"
       id="path4470-9-3"
       inkscape:connector-curvature="0" />
    <path
       style="opacity:1;fill:#000000;fill-opacity:1;fill-rule:nonzero;stroke:none;stroke-width:4;stroke-linecap:round;stroke-linejoin:round;stroke-miterlimit:4;stroke-dasharray:none;stroke-opacity:1"
       d="m 1510.7143,-384.78069 50,0 0,-50 -50,0 0,50 z"
       id="path4468-3-6"
       inkscape:connector-curvature="0" />
    <path
       style="opacity:1;fill:#000000;fill-opacity:1;fill-rule:nonzero;stroke:none;stroke-width:4;stroke-linecap:round;stroke-linejoin:round;stroke-miterlimit:4;stroke-dasharray:none;stroke-opacity:1"
       d="m 1560.7143,-434.78069 50,0 0,-49.99997 -50,0 0,49.99997 z"
       id="path4466-6-1"
       inkscape:connector-curvature="0" />
    <path
       style="opacity:1;fill:#000000;fill-opacity:1;fill-rule:nonzero;stroke:none;stroke-width:4;stroke-linecap:round;stroke-linejoin:round;stroke-miterlimit:4;stroke-dasharray:none;stroke-opacity:1"
       d="m 1610.7143,-484.78066 50,0 0,-50 -50,0 0,50 z"
       id="path4464-06-2"
       inkscape:connector-curvature="0" />
    <path
       style="opacity:1;fill:#000000;fill-opacity:1;fill-rule:nonzero;stroke:none;stroke-width:4;stroke-linecap:round;stroke-linejoin:round;stroke-miterlimit:4;stroke-dasharray:none;stroke-opacity:1"
       d="m 1660.7143,-534.78066 50,0 0,-50 -50,0 0,50 z"
       id="path4462-2-9"
       inkscape:connector-curvature="0" />
    <path
       style="opacity:1;fill:#000000;fill-opacity:1;fill-rule:nonzero;stroke:none;stroke-width:4;stroke-linecap:round;stroke-linejoin:round;stroke-miterlimit:4;stroke-dasharray:none;stroke-opacity:1"
       d="m 1710.7143,-584.78066 50,0 0,-50 0,-49.998 -50,0 0,50 0,49.998 z"
       id="rect4136-3-61-3"
       inkscape:connector-curvature="0" />
    <path
       style="opacity:1;fill:#000000;fill-opacity:1;fill-rule:nonzero;stroke:none;stroke-width:4;stroke-linecap:round;stroke-linejoin:round;stroke-miterlimit:4;stroke-dasharray:none;stroke-opacity:1"
       d="m 1460.7143,-784.78066 -50,0 0,50 50,0 0,-50 z"
       id="path4484-5-8-1"
       inkscape:connector-curvature="0" />
    <path
       style="opacity:1;fill:#000000;fill-opacity:1;fill-rule:nonzero;stroke:none;stroke-width:4;stroke-linecap:round;stroke-linejoin:round;stroke-miterlimit:4;stroke-dasharray:none;stroke-opacity:1"
       d="m 1560.7143,-784.78066 -50,0 0,50 50,0 0,-50 z"
       id="path4484-5-8-9-9"
       inkscape:connector-curvature="0" />
    <path
       style="opacity:1;fill:#17280b;fill-opacity:1;fill-rule:nonzero;stroke:none;stroke-width:3;stroke-linecap:round;stroke-linejoin:round;stroke-miterlimit:4;stroke-dasharray:none;stroke-opacity:1"
       d="M 50 502.36133 L 50 552.36133 L 0 552.36133 L 0 602.36133 L -50 602.36133 L -50 652.36133 L -50 802.36133 L -50 852.36133 L 0 852.36133 L 0 902.36133 L 50 902.36133 L 50 952.36133 L 100 952.36133 L 100 1002.3613 L 150 1002.3613 L 150 1052.3613 L 200 1052.3613 L 200 1102.3613 L 350 1102.3613 L 350 1052.3613 L 400 1052.3613 L 400 1002.3613 L 450 1002.3613 L 450 952.36133 L 500 952.36133 L 500 902.36133 L 550 902.36133 L 550 852.36133 L 600 852.36133 L 600 802.36133 L 600 652.36133 L 600 602.36133 L 550 602.36133 L 550 552.36133 L 500 552.36133 L 500 502.36133 L 300 502.36133 L 300 552.36133 L 250 552.36133 L 250 502.36133 L 50 502.36133 z M 100 552.36133 L 200 552.36133 L 200 602.36133 L 250 602.36133 L 250 652.36133 L 300 652.36133 L 300 602.36133 L 350 602.36133 L 350 552.36133 L 450 552.36133 L 450 602.36133 L 500 602.36133 L 500 652.36133 L 550 652.36133 L 550 802.36133 L 500 802.36133 L 500 852.36133 L 450 852.36133 L 450 902.36133 L 400 902.36133 L 400 952.36133 L 350 952.36133 L 350 1002.3613 L 300 1002.3613 L 300 1052.3613 L 250 1052.3613 L 250 1002.3613 L 200 1002.3613 L 200 952.36133 L 150 952.36133 L 150 902.36133 L 100 902.36133 L 100 852.36133 L 50 852.36133 L 50 802.36133 L 0 802.36133 L 0 652.36133 L 50 652.36133 L 50 602.36133 L 100 602.36133 L 100 552.36133 z "
       id="rect4379" />
    <rect
       style="opacity:1;fill:#000000;fill-opacity:1;fill-rule:nonzero;stroke:none;stroke-width:3;stroke-linecap:round;stroke-linejoin:round;stroke-miterlimit:4;stroke-dasharray:none;stroke-opacity:1"
       id="rect4379-5"
       width="200"
       height="50"
       x="1975.0002"
       y="-893.35205" />
    <rect
       style="opacity:1;fill:#000000;fill-opacity:1;fill-rule:nonzero;stroke:none;stroke-width:3;stroke-linecap:round;stroke-linejoin:round;stroke-miterlimit:4;stroke-dasharray:none;stroke-opacity:1"
       id="rect4379-4-6"
       width="200"
       height="50"
       x="2225.0002"
       y="-893.35205" />
    <rect
       style="opacity:1;fill:#000000;fill-opacity:1;fill-rule:nonzero;stroke:none;stroke-width:3;stroke-linecap:round;stroke-linejoin:round;stroke-miterlimit:4;stroke-dasharray:none;stroke-opacity:1"
       id="rect4379-7-9"
       width="150"
       height="50"
       x="2125.0002"
       y="-843.35205" />
    <rect
       style="opacity:1;fill:#000000;fill-opacity:1;fill-rule:nonzero;stroke:none;stroke-width:3;stroke-linecap:round;stroke-linejoin:round;stroke-miterlimit:4;stroke-dasharray:none;stroke-opacity:1"
       id="rect4379-7-8-3"
       width="100"
       height="50"
       x="1925.0002"
       y="-843.35205" />
    <rect
       style="opacity:1;fill:#000000;fill-opacity:1;fill-rule:nonzero;stroke:none;stroke-width:3;stroke-linecap:round;stroke-linejoin:round;stroke-miterlimit:4;stroke-dasharray:none;stroke-opacity:1"
       id="rect4379-7-8-4-7"
       width="100"
       height="50"
       x="2375.0002"
       y="-843.35205" />
    <rect
       style="opacity:1;fill:#000000;fill-opacity:1;fill-rule:nonzero;stroke:none;stroke-width:3;stroke-linecap:round;stroke-linejoin:round;stroke-miterlimit:4;stroke-dasharray:none;stroke-opacity:1"
       id="rect4379-7-8-5-4"
       width="100"
       height="50"
       x="1875.0002"
       y="-793.35205" />
    <rect
       style="opacity:1;fill:#000000;fill-opacity:1;fill-rule:nonzero;stroke:none;stroke-width:3;stroke-linecap:round;stroke-linejoin:round;stroke-miterlimit:4;stroke-dasharray:none;stroke-opacity:1"
       id="rect4379-7-8-4-0-5"
       width="100"
       height="50"
       x="2425.0002"
       y="-793.35205" />
    <rect
       style="opacity:1;fill:#000000;fill-opacity:1;fill-rule:nonzero;stroke:none;stroke-width:3;stroke-linecap:round;stroke-linejoin:round;stroke-miterlimit:4;stroke-dasharray:none;stroke-opacity:1"
       id="rect4379-7-8-5-3-2"
       width="100"
       height="50"
       x="1875.0002"
       y="-593.35205" />
    <rect
       style="opacity:1;fill:#000000;fill-opacity:1;fill-rule:nonzero;stroke:none;stroke-width:3;stroke-linecap:round;stroke-linejoin:round;stroke-miterlimit:4;stroke-dasharray:none;stroke-opacity:1"
       id="rect4379-7-8-5-3-6-5"
       width="100"
       height="50"
       x="2425.0002"
       y="-593.35205" />
    <rect
       style="opacity:1;fill:#000000;fill-opacity:1;fill-rule:nonzero;stroke:none;stroke-width:3;stroke-linecap:round;stroke-linejoin:round;stroke-miterlimit:4;stroke-dasharray:none;stroke-opacity:1"
       id="rect4379-7-8-5-3-1-4"
       width="100"
       height="50"
       x="1925.0002"
       y="-543.35205" />
    <rect
       style="opacity:1;fill:#000000;fill-opacity:1;fill-rule:nonzero;stroke:none;stroke-width:3;stroke-linecap:round;stroke-linejoin:round;stroke-miterlimit:4;stroke-dasharray:none;stroke-opacity:1"
       id="rect4379-7-8-5-3-1-0-7"
       width="100"
       height="50"
       x="2375.0002"
       y="-543.35205" />
    <rect
       style="opacity:1;fill:#000000;fill-opacity:1;fill-rule:nonzero;stroke:none;stroke-width:3;stroke-linecap:round;stroke-linejoin:round;stroke-miterlimit:4;stroke-dasharray:none;stroke-opacity:1"
       id="rect4379-7-8-5-3-1-6-4"
       width="100"
       height="50"
       x="1975.0002"
       y="-493.35208" />
    <rect
       style="opacity:1;fill:#000000;fill-opacity:1;fill-rule:nonzero;stroke:none;stroke-width:3;stroke-linecap:round;stroke-linejoin:round;stroke-miterlimit:4;stroke-dasharray:none;stroke-opacity:1"
       id="rect4379-7-8-5-3-1-6-3-4"
       width="100"
       height="50"
       x="2325.0002"
       y="-493.35208" />
    <rect
       style="opacity:1;fill:#000000;fill-opacity:1;fill-rule:nonzero;stroke:none;stroke-width:3;stroke-linecap:round;stroke-linejoin:round;stroke-miterlimit:4;stroke-dasharray:none;stroke-opacity:1"
       id="rect4379-7-8-5-3-1-6-2-3"
       width="100"
       height="50"
       x="2025.0002"
       y="-443.35208" />
    <rect
       style="opacity:1;fill:#000000;fill-opacity:1;fill-rule:nonzero;stroke:none;stroke-width:3;stroke-linecap:round;stroke-linejoin:round;stroke-miterlimit:4;stroke-dasharray:none;stroke-opacity:1"
       id="rect4379-7-8-5-3-1-6-2-0-0"
       width="100"
       height="50"
       x="2275.0002"
       y="-443.35208" />
    <rect
       style="opacity:1;fill:#000000;fill-opacity:1;fill-rule:nonzero;stroke:none;stroke-width:3;stroke-linecap:round;stroke-linejoin:round;stroke-miterlimit:4;stroke-dasharray:none;stroke-opacity:1"
       id="rect4379-7-8-5-3-1-6-2-6-7"
       width="100"
       height="50"
       x="2075.0002"
       y="-393.35208" />
    <rect
       style="opacity:1;fill:#000000;fill-opacity:1;fill-rule:nonzero;stroke:none;stroke-width:3;stroke-linecap:round;stroke-linejoin:round;stroke-miterlimit:4;stroke-dasharray:none;stroke-opacity:1"
       id="rect4379-7-8-5-3-1-6-2-6-1-8"
       width="100"
       height="50"
       x="2225.0002"
       y="-393.35208" />
    <rect
       style="opacity:1;fill:#000000;fill-opacity:1;fill-rule:nonzero;stroke:none;stroke-width:3;stroke-linecap:round;stroke-linejoin:round;stroke-miterlimit:4;stroke-dasharray:none;stroke-opacity:1"
       id="rect4379-7-5-6"
       width="150"
       height="50"
       x="2125.0002"
       y="-343.35208" />
    <rect
       style="opacity:1;fill:#000000;fill-opacity:1;fill-rule:nonzero;stroke:none;stroke-width:3;stroke-linecap:round;stroke-linejoin:round;stroke-miterlimit:4;stroke-dasharray:none;stroke-opacity:1"
       id="rect4379-7-54-8"
       width="50"
       height="50"
       x="2175.0002"
       y="-793.35205" />
    <rect
       style="opacity:1;fill:#000000;fill-opacity:1;fill-rule:nonzero;stroke:none;stroke-width:3;stroke-linecap:round;stroke-linejoin:round;stroke-miterlimit:4;stroke-dasharray:none;stroke-opacity:1"
       id="rect4379-7-7-8"
       width="150"
       height="50"
       x="-743.35205"
       y="-1925.0002"
       transform="matrix(0,1,-1,0,0,0)" />
    <rect
       style="opacity:1;fill:#000000;fill-opacity:1;fill-rule:nonzero;stroke:none;stroke-width:3;stroke-linecap:round;stroke-linejoin:round;stroke-miterlimit:4;stroke-dasharray:none;stroke-opacity:1"
       id="rect4379-7-7-6-4"
       width="150"
       height="50"
       x="-743.35205"
       y="-2525.0002"
       transform="matrix(0,1,-1,0,0,0)" />
  </g>
</svg>
