<?xml version="1.0" encoding="UTF-8" standalone="no"?>
<!-- Created with Inkscape (http://www.inkscape.org/) -->

<svg
   xmlns:dc="http://purl.org/dc/elements/1.1/"
   xmlns:cc="http://creativecommons.org/ns#"
   xmlns:rdf="http://www.w3.org/1999/02/22-rdf-syntax-ns#"
   xmlns:svg="http://www.w3.org/2000/svg"
   xmlns="http://www.w3.org/2000/svg"
   xmlns:sodipodi="http://sodipodi.sourceforge.net/DTD/sodipodi-0.dtd"
   xmlns:inkscape="http://www.inkscape.org/namespaces/inkscape"
   width="43.311268mm"
   height="40.000011mm"
   viewBox="0 0 153.46512 141.73232"
   id="svg4268"
   version="1.1"
   inkscape:version="0.91 r13725"
   sodipodi:docname="love_40_kontur.svg">
  <defs
     id="defs4270" />
  <sodipodi:namedview
     id="base"
     pagecolor="#ffffff"
     bordercolor="#666666"
     borderopacity="1.0"
     inkscape:pageopacity="0.0"
     inkscape:pageshadow="2"
     inkscape:zoom="1.4"
     inkscape:cx="443.57143"
     inkscape:cy="-61.995676"
     inkscape:document-units="px"
     inkscape:current-layer="layer1"
     showgrid="false"
     fit-margin-top="0"
     fit-margin-left="0"
     fit-margin-right="0"
     fit-margin-bottom="0"
     inkscape:window-width="1855"
     inkscape:window-height="1056"
     inkscape:window-x="65"
     inkscape:window-y="24"
     inkscape:window-maximized="1" />
  <metadata
     id="metadata4273">
    <rdf:RDF>
      <cc:Work
         rdf:about="">
        <dc:format>image/svg+xml</dc:format>
        <dc:type
           rdf:resource="http://purl.org/dc/dcmitype/StillImage" />
        <dc:title></dc:title>
      </cc:Work>
    </rdf:RDF>
  </metadata>
  <g
     inkscape:label="Layer 1"
     inkscape:groupmode="layer"
     id="layer1"
     transform="translate(1953.8754,652.78967)">
    <path
       style="opacity:1;fill:#ffffff;fill-opacity:1;fill-rule:nonzero;stroke:#000000;stroke-width:0.93862432;stroke-linecap:round;stroke-linejoin:round;stroke-miterlimit:4;stroke-dasharray:none;stroke-opacity:1"
       d="m -1929.9405,-652.32036 0,11.7328 -11.7328,0 0,11.7328 -11.7328,0 0,11.7328 0,35.1985 0,11.7328 11.7328,0 0,11.7328 11.7328,0 0,11.7328 11.7328,0 0,11.7328 11.7328,0 0,11.7328 11.7328,0 0,11.7328 35.1984,0 0,-11.7328 11.7329,0 0,-11.7328 11.7328,0 0,-11.7328 11.7328,0 0,-11.7328 11.7328,0 0,-11.7328 11.7328,0 0,-11.7328 0,-35.1985 0,-11.7328 -11.7328,0 0,-11.7328 -11.7328,0 0,-11.7328 -46.9313,0 0,11.7328 -11.7328,0 0,-11.7328 z"
       id="path4494-9-6-2-5-5"
       inkscape:connector-curvature="0"
       sodipodi:nodetypes="ccccccccccccccccccccccccccccccccccccccccc" />
  </g>
</svg>
