<?xml version="1.0" encoding="UTF-8" standalone="no"?>
<!-- Created with Inkscape (http://www.inkscape.org/) -->

<svg
   xmlns:dc="http://purl.org/dc/elements/1.1/"
   xmlns:cc="http://creativecommons.org/ns#"
   xmlns:rdf="http://www.w3.org/1999/02/22-rdf-syntax-ns#"
   xmlns:svg="http://www.w3.org/2000/svg"
   xmlns="http://www.w3.org/2000/svg"
   xmlns:sodipodi="http://sodipodi.sourceforge.net/DTD/sodipodi-0.dtd"
   xmlns:inkscape="http://www.inkscape.org/namespaces/inkscape"
   width="81.67218mm"
   height="70mm"
   viewBox="0 0 289.38961 248.03149"
   id="svg4786"
   version="1.1"
   inkscape:version="0.91 r13725"
   sodipodi:docname="love_site_70_kontur.svg">
  <defs
     id="defs4788" />
  <sodipodi:namedview
     id="base"
     pagecolor="#ffffff"
     bordercolor="#666666"
     borderopacity="1.0"
     inkscape:pageopacity="0.0"
     inkscape:pageshadow="2"
     inkscape:zoom="1.4"
     inkscape:cx="236.63931"
     inkscape:cy="176.94581"
     inkscape:document-units="px"
     inkscape:current-layer="layer1"
     showgrid="false"
     fit-margin-top="0"
     fit-margin-left="0"
     fit-margin-right="0"
     fit-margin-bottom="0"
     inkscape:window-width="1855"
     inkscape:window-height="1056"
     inkscape:window-x="65"
     inkscape:window-y="24"
     inkscape:window-maximized="1" />
  <metadata
     id="metadata4791">
    <rdf:RDF>
      <cc:Work
         rdf:about="">
        <dc:format>image/svg+xml</dc:format>
        <dc:type
           rdf:resource="http://purl.org/dc/dcmitype/StillImage" />
        <dc:title></dc:title>
      </cc:Work>
    </rdf:RDF>
  </metadata>
  <g
     inkscape:label="Layer 1"
     inkscape:groupmode="layer"
     id="layer1"
     transform="translate(501.83767,-391.2036)">
    <path
       style="opacity:1;fill:#ffffff;fill-opacity:1;fill-rule:nonzero;stroke:#000000;stroke-width:1.64259255;stroke-linecap:round;stroke-linejoin:round;stroke-miterlimit:4;stroke-dasharray:none;stroke-opacity:1"
       d="m -459.95155,392.0249 0,20.5324 -20.53241,0 0,20.53241 -20.53241,0 0,20.53241 0,61.59723 0,20.53241 20.53241,0 0,20.53241 20.53241,0 0,20.5324 20.53241,0 0,20.53242 20.5324,0 0,20.5324 20.53241,0 0,20.53241 61.59721,0 0,-20.53241 20.53242,0 0,-20.5324 20.53241,0 0,-20.53242 20.53241,0 0,-20.5324 20.53241,0 0,-20.53241 41.35813,0 0,-20.53241 0,-61.59723 0,-20.53241 -41.35813,0 0,-20.53241 -20.53241,0 0,-20.5324 -82.12965,0 0,20.5324 -20.53239,0 0,-20.5324 z"
       id="path4494-9-6-2-5-5"
       inkscape:connector-curvature="0"
       sodipodi:nodetypes="ccccccccccccccccccccccccccccccccccccccccc" />
  </g>
</svg>
